# xmcd
#
# Track frame offsets: 
#        150
#        19838
#        28927
#        35282
#        61265
#        66573
#        89581
#        105578
#
# Disc length: 1630 seconds
#
# Revision: 0
# Processed by: cddbd v1.4PL0 Copyright (c) Steve Scherf et al.
# Submitted via: ExactAudioCopy v0.90b4
#
DISCID=6a065c08
DTITLE=Jeff Foxworthy - Sold Out
DYEAR=1900
DGENRE=Comedy
TTITLE0=Cold Butted Woman
TTITLE1=Stuffed Animal Wallhangings
TTITLE2=Bell Bottom Leisure Suits
TTITLE3=Money Fights
TTITLE4=Working Woman
TTITLE5=You Might Be A Redneck
TTITLE6=True Stuff Is The Funniest
TTITLE7=Poor Old Fluffy
EXTD=
EXTT0=
EXTT1=
EXTT2=
EXTT3=
EXTT4=
EXTT5=
EXTT6=
EXTT7=
PLAYORDER=
